# xmcd CD database file
#
# Track frame offsets:
#	150
#	14974
#	27053
#	40596
#	55231
#	67234
#	79483
#	94140
#	108106
#	122962
#	135852
#	149677
#	162786
#	176137
#	189172
#	202311
#
# Disc length: 2896 seconds
#
# Revision: 0
# Processed by: cddbd v1.4PL0 Copyright (c) Steve Scherf et al.
# Submitted via: CDex 1.50
#
DISCID=e90b4e10
DTITLE=Ma Rainey - Heroes Of The Blues - The Very Best Of Ma Rainey
DYEAR=2003
DGENRE=Blues
TTITLE0=Jealous Hearted Blues
TTITLE1=Prove It On Me Blues
TTITLE2=Hear Me Talkin' To You
TTITLE3=Walking Blues
TTITLE4=Bo Weavil Blues
TTITLE5=Mountain Jack Blues
TTITLE6=Those All Night Blues
TTITLE7=Grievin' Hearted Blues
TTITLE8=See See Ryder
TTITLE9=Oh Papa
TTITLE10=Yonder Comes The Blues
TTITLE11=Blues Oh Blues
TTITLE12=Seeking Blues
TTITLE13=Don't Fish In My Sea
TTITLE14=New Bo Weavil Blues
TTITLE15=Black Eye Blues
EXTD=YEAR: 2003
EXTT0=
EXTT1=
EXTT2=
EXTT3=
EXTT4=
EXTT5=
EXTT6=
EXTT7=
EXTT8=
EXTT9=
EXTT10=
EXTT11=
EXTT12=
EXTT13=
EXTT14=
EXTT15=
PLAYORDER=
